<svg id="Layer_1" data-name="Layer 1" xmlns="http://www.w3.org/2000/svg" viewBox="0 0 880.25 574.44"><defs><style>.cls-1{fill:#2e3639;}.cls-2{fill:#2c4e71;}.cls-3{fill:#af562c;}</style></defs><path class="cls-1" d="M401.8,587.47v67.35q0,11.31,10.17,11.3a16.26,16.26,0,0,0,4.29-.79,16.26,16.26,0,0,1,4.29-.79,6.24,6.24,0,0,1,5,2.48,9.71,9.71,0,0,1,2,6.33q0,4.75-5.42,8.14a22.58,22.58,0,0,1-12.21,3.39,55.58,55.58,0,0,1-13.67-1.58q-6.22-1.59-11.07-8t-4.86-19.55V587.47H367.22a9.66,9.66,0,0,1-10-9.94,9.27,9.27,0,0,1,2.83-7,9.84,9.84,0,0,1,7.12-2.71h13.11v-19a10.64,10.64,0,0,1,3.05-7.69,10.34,10.34,0,0,1,7.79-3.16,10.11,10.11,0,0,1,7.58,3.16,10.68,10.68,0,0,1,3.05,7.69v19h18.75a9.66,9.66,0,0,1,9.95,9.94,9.26,9.26,0,0,1-2.83,7,9.84,9.84,0,0,1-7.12,2.71Z" transform="translate(-357.27 -517.64)"/><path class="cls-1" d="M554.34,613.69V674a10.6,10.6,0,0,1-3.05,7.68,10.31,10.31,0,0,1-7.79,3.17,10.08,10.08,0,0,1-7.58-3.17,10.64,10.64,0,0,1-3-7.68V613.69q0-29.38-24.86-29.38-13.33,0-22.14,8.47a27.85,27.85,0,0,0-8.82,20.91V674a10.6,10.6,0,0,1-3.05,7.68,10.32,10.32,0,0,1-7.8,3.17,10.2,10.2,0,0,1-7.68-3,10.8,10.8,0,0,1-2.94-7.8V528.49a10.68,10.68,0,0,1,3.05-7.69,10.1,10.1,0,0,1,7.57-3.16,10.35,10.35,0,0,1,7.8,3.16,10.64,10.64,0,0,1,3.05,7.69v57.17a48.37,48.37,0,0,1,15.82-15,40.93,40.93,0,0,1,21.7-6.21Q554.34,564.42,554.34,613.69Z" transform="translate(-357.27 -517.64)"/><path class="cls-1" d="M687,628a10.83,10.83,0,0,1-7.45,2.82H600q1.57,16.5,12.54,26.45t26.78,9.94q10.84,0,17.63-3.16a44,44,0,0,0,12-8.14,12.72,12.72,0,0,1,6.56-2,8.55,8.55,0,0,1,6.44,2.71,8.88,8.88,0,0,1,2.6,6.33q0,4.74-4.52,8.58-6.56,6.57-17.4,11.08a57.21,57.21,0,0,1-22.15,4.52q-18.3,0-32.21-7.69A53.52,53.52,0,0,1,586.77,658q-7.57-13.77-7.57-31.18,0-19,7.8-33.34a56.42,56.42,0,0,1,20.57-22,52.93,52.93,0,0,1,54.57-.23,56.6,56.6,0,0,1,20.34,20.57,58.59,58.59,0,0,1,7.91,29.38A9.65,9.65,0,0,1,687,628Zm-73.9-37.29q-9.27,7.13-12.2,22h66.67V611a27.64,27.64,0,0,0-10.74-19.67A34,34,0,0,0,635,583.63,34.91,34.91,0,0,0,613.1,590.75Z" transform="translate(-357.27 -517.64)"/><path class="cls-2" d="M515.36,749.38a10.52,10.52,0,0,1,3,7.79,14.6,14.6,0,0,1-.9,4.3L482.93,859.1a10.06,10.06,0,0,1-4.52,5.42,10.64,10.64,0,0,1-6.78,1.36q-6.11-.45-9.27-6.78l-23.5-61.47-21.7,61.47a10.84,10.84,0,0,1-3.84,4.86,11,11,0,0,1-5.42,1.92,10.25,10.25,0,0,1-6.67-1.47,9.56,9.56,0,0,1-4.41-5.31l-35-97.63a13.58,13.58,0,0,1-.67-4.3,10.87,10.87,0,0,1,2.93-7.68,10,10,0,0,1,7.69-3.17q7.68,0,9.94,6.78l26.9,76.17L430.05,773q2.7-6.78,9.94-6.78,6.78,0,9.27,6.78l21.92,55.37,26.44-75.26q2.49-6.78,10.4-6.78A10,10,0,0,1,515.36,749.38Z" transform="translate(-357.27 -517.64)"/><path class="cls-2" d="M642.26,809a10.86,10.86,0,0,1-7.46,2.82H555.25q1.57,16.5,12.54,26.45t26.78,9.94q10.84,0,17.63-3.16a44.25,44.25,0,0,0,12-8.14,12.69,12.69,0,0,1,6.55-2,8.55,8.55,0,0,1,6.44,2.71,8.88,8.88,0,0,1,2.6,6.33q0,4.74-4.52,8.58-6.56,6.57-17.4,11.08a57.17,57.17,0,0,1-22.15,4.52q-18.3,0-32.2-7.69A53.4,53.4,0,0,1,542,839q-7.57-13.77-7.57-31.18,0-19,7.79-33.34a56.42,56.42,0,0,1,20.57-22,52.95,52.95,0,0,1,54.58-.23,56.75,56.75,0,0,1,20.34,20.57,58.69,58.69,0,0,1,7.91,29.38A9.65,9.65,0,0,1,642.26,809Zm-73.9-37.29q-9.27,7.13-12.21,22h66.67V792a27.62,27.62,0,0,0-10.73-19.67,34,34,0,0,0-21.81-7.68A34.89,34.89,0,0,0,568.36,771.75Z" transform="translate(-357.27 -517.64)"/><path class="cls-2" d="M690.62,862.71a10.43,10.43,0,0,1-7.69,3.17,10.07,10.07,0,0,1-7.57-3.17,10.64,10.64,0,0,1-3.05-7.68V709.49a10.81,10.81,0,0,1,10.85-10.85,10.08,10.08,0,0,1,7.57,3.16,10.64,10.64,0,0,1,3,7.69V855A10.42,10.42,0,0,1,690.62,862.71Z" transform="translate(-357.27 -517.64)"/><path class="cls-2" d="M747.79,862.71a10.42,10.42,0,0,1-7.68,3.17,10,10,0,0,1-7.57-3.17,10.64,10.64,0,0,1-3-7.68V709.49a10.79,10.79,0,0,1,10.85-10.85,10.1,10.1,0,0,1,7.57,3.16,10.68,10.68,0,0,1,3.05,7.69V855A10.43,10.43,0,0,1,747.79,862.71Z" transform="translate(-357.27 -517.64)"/><path class="cls-2" d="M885.88,793.56V855a10.64,10.64,0,0,1-3,7.68,10.33,10.33,0,0,1-7.8,3.17,10.06,10.06,0,0,1-7.57-3.17,10.64,10.64,0,0,1-3.05-7.68V793.78q0-13.32-6.1-21.24t-19.89-7.91a34.09,34.09,0,0,0-16.39,4,30.17,30.17,0,0,0-11.52,10.63,26.86,26.86,0,0,0-4.18,14.57V855a10.64,10.64,0,0,1-3.05,7.68,10.35,10.35,0,0,1-7.8,3.17,10.18,10.18,0,0,1-7.68-3,10.8,10.8,0,0,1-2.94-7.8V758.3a10.67,10.67,0,0,1,3-7.68,10.08,10.08,0,0,1,7.57-3.17,10.38,10.38,0,0,1,7.8,3.17,10.67,10.67,0,0,1,3.05,7.68v7.91A48.56,48.56,0,0,1,822.71,751a43.49,43.49,0,0,1,22.49-6.22Q885.88,744.74,885.88,793.56Z" transform="translate(-357.27 -517.64)"/><path class="cls-2" d="M1018.54,809a10.86,10.86,0,0,1-7.46,2.82H931.53q1.58,16.5,12.54,26.45t26.78,9.94q10.85,0,17.63-3.16a44.25,44.25,0,0,0,12-8.14,12.69,12.69,0,0,1,6.55-2,8.55,8.55,0,0,1,6.44,2.71,8.88,8.88,0,0,1,2.6,6.33q0,4.74-4.52,8.58-6.56,6.57-17.4,11.08A57.17,57.17,0,0,1,972,868.14q-18.3,0-32.2-7.69A53.4,53.4,0,0,1,918.31,839q-7.57-13.77-7.57-31.18,0-19,7.79-33.34a56.49,56.49,0,0,1,20.57-22,52.95,52.95,0,0,1,54.58-.23A56.67,56.67,0,0,1,1014,772.77a58.69,58.69,0,0,1,7.91,29.38A9.65,9.65,0,0,1,1018.54,809Zm-73.9-37.29q-9.27,7.13-12.21,22H999.1V792a27.62,27.62,0,0,0-10.73-19.67,34,34,0,0,0-21.81-7.68A34.89,34.89,0,0,0,944.64,771.75Z" transform="translate(-357.27 -517.64)"/><path class="cls-2" d="M1038,841.24q0-4.51,4.75-7.68a8.86,8.86,0,0,1,5.2-1.58,10.37,10.37,0,0,1,7.46,3.39A47.7,47.7,0,0,0,1070,846.89q7.8,3.86,18.65,3.85a31.78,31.78,0,0,0,15.14-4q6.55-3.74,6.55-12.09a13,13,0,0,0-6.66-11.75q-6.68-4.07-19.55-7.46a143.26,143.26,0,0,1-21-7.12,37.6,37.6,0,0,1-14.13-10.85q-5.76-7.11-5.76-18.64a29,29,0,0,1,5.76-17.86,38.37,38.37,0,0,1,15.37-12,50.67,50.67,0,0,1,20.91-4.3,60.56,60.56,0,0,1,21.58,4.07,40.62,40.62,0,0,1,17.52,12.43,10,10,0,0,1,2.71,6.55c0,2.42-1.21,4.75-3.62,7a8.12,8.12,0,0,1-5.65,2,8.44,8.44,0,0,1-6.55-2.71,32,32,0,0,0-11.64-8.36,38.52,38.52,0,0,0-15.26-2.94,28.35,28.35,0,0,0-14.57,3.51q-6,3.49-6,11.86a13.11,13.11,0,0,0,6.89,11.75q6.66,3.85,20.45,7.46a126,126,0,0,1,19.89,6.78,34.75,34.75,0,0,1,13.34,10.74q5.42,7.11,5.42,18.64a29,29,0,0,1-6.1,18.42,39.35,39.35,0,0,1-15.94,12,53,53,0,0,1-20.9,4.18,68.66,68.66,0,0,1-26.33-5A49.13,49.13,0,0,1,1040,847.35,11.32,11.32,0,0,1,1038,841.24Z" transform="translate(-357.27 -517.64)"/><path class="cls-2" d="M1145.77,841.24q0-4.51,4.75-7.68a8.86,8.86,0,0,1,5.2-1.58,10.34,10.34,0,0,1,7.45,3.39,47.85,47.85,0,0,0,14.58,11.52q7.8,3.86,18.65,3.85a31.78,31.78,0,0,0,15.14-4q6.56-3.74,6.55-12.09a13,13,0,0,0-6.66-11.75q-6.67-4.07-19.55-7.46a143.26,143.26,0,0,1-21-7.12,37.6,37.6,0,0,1-14.13-10.85q-5.76-7.11-5.76-18.64a29,29,0,0,1,5.76-17.86,38.37,38.37,0,0,1,15.37-12,50.67,50.67,0,0,1,20.91-4.3,60.56,60.56,0,0,1,21.58,4.07,40.68,40.68,0,0,1,17.52,12.43,10,10,0,0,1,2.71,6.55c0,2.42-1.21,4.75-3.62,7a8.12,8.12,0,0,1-5.65,2,8.44,8.44,0,0,1-6.55-2.71,32,32,0,0,0-11.64-8.36,38.52,38.52,0,0,0-15.26-2.94,28.35,28.35,0,0,0-14.57,3.51q-6,3.49-6,11.86a13.11,13.11,0,0,0,6.89,11.75q6.66,3.85,20.45,7.46a126,126,0,0,1,19.89,6.78,34.75,34.75,0,0,1,13.34,10.74q5.42,7.11,5.42,18.64a29,29,0,0,1-6.1,18.42,39.35,39.35,0,0,1-15.94,12,53,53,0,0,1-20.9,4.18,68.66,68.66,0,0,1-26.33-5,49.13,49.13,0,0,1-20.45-15.82A11.32,11.32,0,0,1,1145.77,841.24Z" transform="translate(-357.27 -517.64)"/><path class="cls-3" d="M473.55,929.92a10.88,10.88,0,0,1,3.05,8V1036a10.64,10.64,0,0,1-3.05,7.68,10.32,10.32,0,0,1-7.8,3.17,10.2,10.2,0,0,1-7.68-3.05,10.8,10.8,0,0,1-2.94-7.8v-5.88a48.29,48.29,0,0,1-16,13.45,45.16,45.16,0,0,1-21.93,5.54,51.31,51.31,0,0,1-27.91-7.91,54.29,54.29,0,0,1-19.66-22,74.35,74.35,0,0,1,0-63.5,54.62,54.62,0,0,1,19.55-22,49.93,49.93,0,0,1,27.35-7.91,50.55,50.55,0,0,1,22.26,5,46.24,46.24,0,0,1,16.38,12.66V938a11.16,11.16,0,0,1,2.94-7.91,10,10,0,0,1,7.68-3.17A10.56,10.56,0,0,1,473.55,929.92Zm-35,93.91a36.68,36.68,0,0,0,12.88-14.92A48.29,48.29,0,0,0,456,987.44a47.75,47.75,0,0,0-4.64-21.24,37.47,37.47,0,0,0-12.88-15,33.08,33.08,0,0,0-18.87-5.54,33.61,33.61,0,0,0-18.87,5.42A36.61,36.61,0,0,0,387.9,966a52,52,0,0,0,0,42.94,36.61,36.61,0,0,0,12.88,14.92,35.56,35.56,0,0,0,37.74,0Z" transform="translate(-357.27 -517.64)"/><path class="cls-3" d="M595.7,934.22A53.89,53.89,0,0,1,615.25,956q7.13,14,7.12,31.64t-7.12,31.52A54.8,54.8,0,0,1,595.7,1041a49.83,49.83,0,0,1-27.34,7.91,47.4,47.4,0,0,1-21.92-5.2,52.6,52.6,0,0,1-16.5-12.65v50.17a10.67,10.67,0,0,1-3.05,7.68,10.38,10.38,0,0,1-7.8,3.17,10.28,10.28,0,0,1-7.57-3,10.6,10.6,0,0,1-3-7.8V939.08a11.16,11.16,0,0,1,2.94-7.91,10,10,0,0,1,7.68-3.17,10.38,10.38,0,0,1,7.8,3.17,11,11,0,0,1,3.05,7.91v6.55q5.41-7.9,15.82-13.56a45.75,45.75,0,0,1,22.15-5.65A51.19,51.19,0,0,1,595.7,934.22Zm-11.52,89.38a36.59,36.59,0,0,0,13-14.8,50.43,50.43,0,0,0,0-42.26,36.55,36.55,0,0,0-13-14.81,33.79,33.79,0,0,0-18.76-5.42,34.63,34.63,0,0,0-19,5.31,35.53,35.53,0,0,0-13,14.8,51.06,51.06,0,0,0,0,42.49,35.53,35.53,0,0,0,13,14.8,34.63,34.63,0,0,0,19,5.31A33.71,33.71,0,0,0,584.18,1023.6Z" transform="translate(-357.27 -517.64)"/><path class="cls-3" d="M734.47,934.22A54,54,0,0,1,754,956q7.11,14,7.12,31.64T754,1019.19A55,55,0,0,1,734.47,1041a49.87,49.87,0,0,1-27.35,7.91,47.43,47.43,0,0,1-21.92-5.2,52.72,52.72,0,0,1-16.5-12.65v50.17a10.67,10.67,0,0,1-3.05,7.68,11.05,11.05,0,0,1-15.37.12,10.6,10.6,0,0,1-3-7.8V939.08a11.16,11.16,0,0,1,2.94-7.91,10,10,0,0,1,7.68-3.17,10.35,10.35,0,0,1,7.8,3.17,11,11,0,0,1,3.05,7.91v6.55q5.43-7.9,15.82-13.56a45.75,45.75,0,0,1,22.15-5.65A51.25,51.25,0,0,1,734.47,934.22Zm-11.53,89.38a36.61,36.61,0,0,0,13-14.8,50.53,50.53,0,0,0,0-42.26,36.57,36.57,0,0,0-13-14.81,33.77,33.77,0,0,0-18.76-5.42,34.63,34.63,0,0,0-19,5.31,35.53,35.53,0,0,0-13,14.8,51.06,51.06,0,0,0,0,42.49,35.53,35.53,0,0,0,13,14.8,34.63,34.63,0,0,0,19,5.31A33.69,33.69,0,0,0,722.94,1023.6Z" transform="translate(-357.27 -517.64)"/><path class="cls-3" d="M889.84,929.92a10.84,10.84,0,0,1,3,8V1036a10.6,10.6,0,0,1-3,7.68,10.32,10.32,0,0,1-7.8,3.17,10.2,10.2,0,0,1-7.68-3.05,10.8,10.8,0,0,1-2.94-7.8v-5.88a48.29,48.29,0,0,1-16,13.45,45.15,45.15,0,0,1-21.92,5.54,51.32,51.32,0,0,1-27.92-7.91,54.29,54.29,0,0,1-19.66-22,74.35,74.35,0,0,1,0-63.5,54.62,54.62,0,0,1,19.55-22,50,50,0,0,1,27.35-7.91,50.55,50.55,0,0,1,22.26,5,46.15,46.15,0,0,1,16.38,12.66V938a11.16,11.16,0,0,1,2.94-7.91,10,10,0,0,1,7.68-3.17A10.56,10.56,0,0,1,889.84,929.92Zm-35,93.91a36.68,36.68,0,0,0,12.88-14.92,48.29,48.29,0,0,0,4.64-21.47,47.75,47.75,0,0,0-4.64-21.24,37.47,37.47,0,0,0-12.88-15,33.08,33.08,0,0,0-18.87-5.54,33.61,33.61,0,0,0-18.87,5.42A36.61,36.61,0,0,0,804.19,966a52.09,52.09,0,0,0,0,42.94,36.61,36.61,0,0,0,12.88,14.92,35.56,35.56,0,0,0,37.74,0Z" transform="translate(-357.27 -517.64)"/><path class="cls-3" d="M993.92,928.79q4.29,3.06,4.29,7.57,0,5.43-2.83,8.25a9.35,9.35,0,0,1-6.89,2.83,21.3,21.3,0,0,1-6.1-1.36,25.55,25.55,0,0,0-7.46-1.58,23,23,0,0,0-13.67,4.86,35.54,35.54,0,0,0-10.85,13.33,42.06,42.06,0,0,0-4.18,18.87V1036a10.64,10.64,0,0,1-3.05,7.68,10.35,10.35,0,0,1-7.8,3.17,10.18,10.18,0,0,1-7.68-3.05,10.8,10.8,0,0,1-2.94-7.8V939.3a10.67,10.67,0,0,1,3-7.68,10.09,10.09,0,0,1,7.57-3.17,10.38,10.38,0,0,1,7.8,3.17,10.67,10.67,0,0,1,3.05,7.68v11.53a42.78,42.78,0,0,1,14.91-18,40.09,40.09,0,0,1,22.61-7.12A17.16,17.16,0,0,1,993.92,928.79Z" transform="translate(-357.27 -517.64)"/><path class="cls-3" d="M1113.7,990a10.87,10.87,0,0,1-7.46,2.82h-79.55q1.57,16.5,12.54,26.45t26.78,9.94q10.85,0,17.63-3.16a44.25,44.25,0,0,0,12-8.14,12.69,12.69,0,0,1,6.55-2,8.55,8.55,0,0,1,6.44,2.71,8.88,8.88,0,0,1,2.6,6.33q0,4.74-4.52,8.58-6.56,6.57-17.4,11.08a57.17,57.17,0,0,1-22.15,4.52q-18.3,0-32.2-7.69a53.49,53.49,0,0,1-21.48-21.47,63.73,63.73,0,0,1-7.57-31.18q0-19,7.8-33.34a56.42,56.42,0,0,1,20.57-22,52.95,52.95,0,0,1,54.58-.23,56.75,56.75,0,0,1,20.34,20.57,58.79,58.79,0,0,1,7.91,29.38A9.72,9.72,0,0,1,1113.7,990Zm-73.91-37.29q-9.27,7.13-12.2,22h66.67V973a27.66,27.66,0,0,0-10.73-19.67,34,34,0,0,0-21.81-7.68A34.94,34.94,0,0,0,1039.79,952.75Z" transform="translate(-357.27 -517.64)"/><path class="cls-3" d="M1162.06,1043.71a10.43,10.43,0,0,1-7.69,3.17,10.07,10.07,0,0,1-7.57-3.17,10.64,10.64,0,0,1-3-7.68V890.49a10.81,10.81,0,0,1,10.85-10.85,10.08,10.08,0,0,1,7.57,3.16,10.64,10.64,0,0,1,3,7.69V1036A10.42,10.42,0,0,1,1162.06,1043.71Z" transform="translate(-357.27 -517.64)"/></svg>